<?xml version="1.0" encoding="UTF-8" standalone="no"?>
<svg
   xmlns:dc="http://purl.org/dc/elements/1.1/"
   xmlns:cc="http://creativecommons.org/ns#"
   xmlns:rdf="http://www.w3.org/1999/02/22-rdf-syntax-ns#"
   xmlns:svg="http://www.w3.org/2000/svg"
   xmlns="http://www.w3.org/2000/svg"
   xmlns:sodipodi="http://sodipodi.sourceforge.net/DTD/sodipodi-0.dtd"
   xmlns:inkscape="http://www.inkscape.org/namespaces/inkscape"
   version="1.1"
   x="0px"
   y="0px"
   viewBox="0 0 75.5 75.5"
   enable-background="new 0 0 100 100"
   xml:space="preserve"
   id="svg8"
   sodipodi:docname="arrow_down.svg"
   width="75.5"
   height="75.5"
   inkscape:version="0.92.1 r15371"><metadata
     id="metadata14"><rdf:RDF><cc:Work
         rdf:about=""><dc:format>image/svg+xml</dc:format><dc:type
           rdf:resource="http://purl.org/dc/dcmitype/StillImage" /></cc:Work></rdf:RDF></metadata><defs
     id="defs12" /><sodipodi:namedview
     pagecolor="#ffffff"
     bordercolor="#666666"
     borderopacity="1"
     objecttolerance="10"
     gridtolerance="10"
     guidetolerance="10"
     inkscape:pageopacity="0"
     inkscape:pageshadow="2"
     inkscape:window-width="1366"
     inkscape:window-height="704"
     id="namedview10"
     showgrid="false"
     inkscape:zoom="1.888"
     inkscape:cx="37.75"
     inkscape:cy="25.25"
     inkscape:window-x="0"
     inkscape:window-y="27"
     inkscape:window-maximized="1"
     inkscape:current-layer="svg8" /><path
     d="M 37.75,0 C 16.901,0 0,16.901 0,37.75 0,58.6 16.901,75.5 37.75,75.5 58.6,75.5 75.5,58.6 75.5,37.75 75.5,16.901 58.6,0 37.75,0 Z M 37.508,45.103 24.927,32.521 27.048,30.4 37.508,40.86 48.468,29.9 50.59,32.021 39.63,42.981 Z M 57.064,66.941 C 55.023,68.294 52.833,68.62 50.523,68.497 62.568,63.486 71.04,51.608 71.04,37.75 71.04,19.364 56.135,4.459 37.75,4.459 19.364,4.459 4.459,19.363 4.459,37.75 c 0,13.855 8.467,25.73 20.507,30.743 -2.312,0.122 -4.504,-0.205 -6.546,-1.56 C 8.976,60.665 2.75,49.936 2.75,37.75 c 0,-19.33 15.67,-35 35,-35 19.33,0 35,15.67 35,35 0,12.191 -6.232,22.926 -15.686,29.191 z"
     id="path2"
     style="fill:#2f6b48;fill-opacity:1"
     inkscape:connector-curvature="0" /></svg>